# Blender 5.0.1
# www.blender.org
mtllib Grass_For_Games.mtl
o Wheat_Grass_High_Dense
v 0.078276 0.138106 -0.019104
v 0.061629 -0.001156 -0.012275
v 0.068515 0.141529 -0.014300
v 0.068253 -0.001483 -0.015434
v 0.116509 0.133536 -0.031612
v 0.126756 -0.001312 -0.026695
v 0.125812 0.135025 -0.026774
v 0.115957 -0.001421 -0.032470
v 0.109729 0.134314 -0.027000
v 0.093524 -0.001180 -0.026077
v 0.097556 0.136311 -0.022451
v 0.101614 -0.001660 -0.029006
v 0.135274 0.184512 -0.034829
v 0.147393 0.187610 -0.042482
v 0.158735 -0.000666 -0.052087
v 0.144539 -0.002032 -0.042911
v 0.226270 0.150733 -0.095121
v 0.211529 0.151771 -0.095141
v 0.221395 -0.001462 -0.077879
v 0.231075 -0.001223 -0.078085
v 0.232583 0.118402 -0.077679
v 0.223295 0.119264 -0.076098
v 0.219549 -0.001224 -0.084905
v 0.228353 -0.001550 -0.086313
v 0.033328 0.123016 -0.012545
v 0.032757 -0.001512 -0.015264
v 0.026688 0.123867 -0.010867
v 0.039907 -0.001153 -0.017102
v 0.139978 0.144985 -0.048272
v 0.145719 0.147199 -0.053686
v 0.149345 -0.001009 -0.070240
v 0.143108 -0.001907 -0.064130
v 0.207857 0.196602 -0.095022
v 0.192664 0.197412 -0.098271
v 0.197970 -0.001390 -0.103283
v 0.212308 -0.001340 -0.100177
v 0.180586 0.123223 -0.092767
v 0.174907 -0.001575 -0.095111
v 0.171480 0.125345 -0.088812
v 0.180963 -0.001257 -0.097558
v 0.064768 0.139724 -0.031927
v 0.075451 0.140969 -0.034595
v 0.070792 -0.001492 -0.040199
v 0.058422 -0.001251 -0.036858
v 0.158753 0.122558 -0.107280
v 0.172292 -0.001217 -0.106524
v 0.170544 0.124302 -0.108722
v 0.164479 -0.001602 -0.105673
v 0.044496 0.202806 -0.030333
v 0.064164 -0.001056 -0.041716
v 0.059919 0.204444 -0.034627
v 0.049585 -0.001764 -0.037562
v 0.190001 -0.001083 -0.139184
v 0.182317 -0.001749 -0.128157
v 0.171348 0.213130 -0.124390
v 0.181220 0.213985 -0.138572
v 0.029787 0.133514 -0.020642
v 0.021814 -0.001361 -0.015767
v 0.028024 0.134811 -0.013480
v 0.023810 -0.001379 -0.023534
v 0.045803 0.125533 -0.037089
v 0.033005 -0.001210 -0.028550
v 0.038099 0.128567 -0.030847
v 0.038168 -0.001453 -0.032782
v 0.113448 0.208941 -0.107893
v 0.129665 -0.001250 -0.116137
v 0.123513 0.210138 -0.120980
v 0.120068 -0.001518 -0.103830
v 0.065954 0.130671 -0.064998
v 0.071731 0.134555 -0.073375
v 0.085291 -0.000889 -0.082071
v 0.081181 -0.001626 -0.076433
v 0.031263 0.129926 -0.039179
v 0.033911 -0.001389 -0.029618
v 0.030694 0.131250 -0.028982
v 0.034470 -0.001349 -0.041514
v 0.175334 0.196145 -0.192693
v 0.163204 0.198531 -0.183322
v 0.163659 -0.001163 -0.176391
v 0.177723 -0.001562 -0.187520
v 0.150524 -0.001632 -0.169526
v 0.147575 0.127426 -0.167893
v 0.153443 -0.001016 -0.177010
v 0.143821 0.126634 -0.158272
v 0.073062 0.148632 -0.067656
v 0.073797 0.149910 -0.079406
v 0.056179 -0.001523 -0.076341
v 0.055680 -0.001222 -0.062659
v 0.086422 0.197031 -0.106088
v 0.088140 -0.001848 -0.109060
v 0.101534 0.200075 -0.110914
v 0.078246 -0.001110 -0.105923
v 0.082912 0.139174 -0.105813
v 0.084446 0.141908 -0.116836
v 0.079567 -0.001455 -0.115497
v 0.078759 -0.001321 -0.108161
v 0.090554 0.212253 -0.127426
v 0.077341 -0.001247 -0.113665
v 0.083773 0.214721 -0.108078
v 0.081933 -0.001556 -0.126393
v 0.122006 0.202894 -0.210136
v 0.125371 0.204629 -0.220832
v 0.132377 -0.001453 -0.213148
v 0.128479 -0.001242 -0.201642
v 0.029864 0.180805 -0.037220
v 0.021710 0.183686 -0.025140
v 0.020821 -0.001764 -0.039157
v 0.026409 -0.001155 -0.046902
v 0.022208 0.130850 -0.026677
v 0.015542 0.131026 -0.018675
v 0.013730 -0.001532 -0.029833
v 0.020085 -0.001160 -0.037313
v 0.060216 0.122322 -0.116730
v 0.064236 0.123627 -0.122151
v 0.062488 -0.001309 -0.125377
v 0.058223 -0.001456 -0.119379
v 0.052306 -0.001099 -0.125106
v 0.057256 -0.001727 -0.112735
v 0.052379 0.211224 -0.101349
v 0.046024 0.212032 -0.117258
v 0.018419 0.172601 -0.100424
v 0.030136 -0.000939 -0.071011
v 0.015856 0.175888 -0.083950
v 0.031688 -0.002032 -0.081986
v 0.012652 0.188641 -0.028592
v 0.016680 -0.001832 -0.033655
v 0.019571 0.188353 -0.015347
v 0.010117 -0.000781 -0.046084
v 0.020678 0.189024 -0.045561
v 0.027878 0.190983 -0.058519
v 0.021620 -0.001370 -0.061266
v 0.013489 -0.001367 -0.046005
v 0.081475 0.168589 -0.203161
v 0.087257 0.169017 -0.215277
v 0.068278 -0.001494 -0.216549
v 0.062960 -0.001209 -0.205056
v 0.048709 0.193424 -0.088610
v 0.040036 0.197606 -0.105020
v 0.028697 -0.000760 -0.118665
v 0.034548 -0.002309 -0.107763
v 0.032678 0.136732 -0.108729
v 0.029516 0.137375 -0.119097
v 0.025018 -0.001351 -0.115748
v 0.028006 -0.001390 -0.105955
v -0.007618 0.165702 -0.028978
v -0.005721 0.169018 -0.042087
v 0.006709 -0.001440 -0.038517
v 0.005120 -0.001329 -0.029867
v 0.008570 0.132347 -0.118524
v 0.019881 -0.001206 -0.108398
v 0.010778 0.133990 -0.111606
v 0.017362 -0.001611 -0.115952
v 0.022588 0.124123 -0.185270
v 0.018258 0.124680 -0.190713
v 0.022961 -0.001644 -0.178349
v 0.027609 -0.000955 -0.172541
v 0.017751 -0.001305 -0.172792
v 0.018868 -0.001453 -0.163268
v 0.018030 0.151879 -0.161711
v 0.016587 0.152069 -0.173955
v 0.016250 0.178384 -0.228630
v 0.021488 -0.001393 -0.236998
v 0.028944 0.179972 -0.240336
v 0.013144 -0.001330 -0.229282
v 0.004445 -0.001195 -0.175962
v 0.012531 -0.001600 -0.185325
v 0.013342 0.196134 -0.191632
v 0.002936 0.196655 -0.179601
v 0.010510 0.169227 -0.120432
v 0.003108 -0.001227 -0.096618
v 0.016655 0.173111 -0.108470
v -0.000659 -0.001444 -0.104807
v -0.001468 -0.001146 -0.096091
v -0.005461 0.155277 -0.112780
v -0.004052 -0.001664 -0.105553
v -0.002134 0.155942 -0.100616
v -0.024836 0.155074 -0.209795
v -0.010028 -0.001638 -0.211492
v -0.022448 0.155097 -0.197672
v -0.012407 -0.001026 -0.222882
v -0.021888 0.182702 -0.202394
v -0.014063 -0.001383 -0.206287
v -0.015192 0.184416 -0.209907
v -0.021412 -0.001347 -0.198192
v -0.002434 0.176875 -0.107504
v -0.005957 -0.001303 -0.085279
v 0.006676 0.178818 -0.096987
v -0.016328 -0.001430 -0.097784
v -0.016630 0.151748 -0.169809
v -0.023807 0.156042 -0.179209
v -0.031179 -0.000907 -0.191957
v -0.026299 -0.001617 -0.185525
v -0.023913 0.127356 -0.153119
v -0.027977 0.128541 -0.158870
v -0.029834 -0.001385 -0.155561
v -0.025427 -0.001343 -0.149311
v -0.022794 0.178522 -0.126548
v -0.034251 0.179699 -0.134723
v -0.032337 -0.001779 -0.121187
v -0.018989 -0.000980 -0.111807
v -0.034470 0.134470 -0.155612
v -0.034424 -0.001173 -0.140133
v -0.030280 0.135530 -0.145819
v -0.038370 -0.001615 -0.149414
v -0.003541 0.151083 -0.048764
v -0.006459 0.152410 -0.056614
v -0.015271 -0.001417 -0.049709
v -0.011895 -0.001296 -0.041281
v -0.061540 0.190941 -0.147770
v -0.052789 -0.000877 -0.177125
v -0.057936 0.196127 -0.162225
v -0.055281 -0.001633 -0.167303
v -0.015904 -0.001607 -0.036285
v -0.008370 -0.001050 -0.029794
v -0.008539 0.157608 -0.044666
v -0.018224 0.156892 -0.053014
v -0.095276 0.140791 -0.218377
v -0.100617 0.141344 -0.224189
v -0.085633 -0.001713 -0.216619
v -0.080000 -0.000851 -0.210348
v -0.067069 -0.001198 -0.167308
v -0.084030 0.188277 -0.169719
v -0.078682 -0.001595 -0.169751
v -0.069100 0.188788 -0.166572
v -0.113822 0.178749 -0.206600
v -0.091414 -0.001025 -0.207323
v -0.100162 0.180360 -0.203053
v -0.104363 -0.001803 -0.210659
v -0.014299 0.171516 -0.017687
v -0.021928 0.173194 -0.023260
v -0.017264 -0.001353 -0.028571
v -0.009020 -0.001392 -0.022438
v -0.112415 -0.001233 -0.207314
v -0.114425 0.181511 -0.224759
v -0.119037 -0.001548 -0.216658
v -0.105909 0.181916 -0.212747
v -0.131043 0.131356 -0.210079
v -0.121552 -0.001359 -0.209897
v -0.120281 0.132627 -0.203216
v -0.128705 -0.001383 -0.214315
v -0.104485 0.198138 -0.186323
v -0.103643 0.200262 -0.167180
v -0.111493 -0.001301 -0.171663
v -0.111924 -0.001472 -0.184290
v -0.138124 0.187874 -0.212544
v -0.137561 0.191316 -0.197534
v -0.141802 -0.001594 -0.203187
v -0.142039 -0.001247 -0.213104
v -0.058127 0.208056 -0.082032
v -0.069654 0.210471 -0.093495
v -0.071553 -0.001221 -0.095337
v -0.057982 -0.001507 -0.082034
v -0.139467 0.140337 -0.176412
v -0.135120 -0.001644 -0.181039
v -0.139284 0.141343 -0.187477
v -0.135413 -0.001108 -0.168203
v -0.114725 0.192162 -0.153881
v -0.133259 0.194781 -0.154138
v -0.134416 -0.001161 -0.156510
v -0.122158 -0.001690 -0.156383
v -0.122813 0.128459 -0.149944
v -0.123290 -0.001526 -0.141918
v -0.113609 0.128642 -0.145518
v -0.131937 -0.001168 -0.146146
v -0.111624 0.122591 -0.116558
v -0.120318 0.123627 -0.120919
v -0.121837 -0.001160 -0.127205
v -0.113637 -0.001632 -0.123007
v -0.078712 0.167376 -0.083738
v -0.074476 0.169664 -0.075662
v -0.068324 -0.001071 -0.065994
v -0.072928 -0.001814 -0.074918
v -0.111114 0.207872 -0.118957
v -0.102963 0.210249 -0.111003
v -0.106660 -0.001200 -0.099262
v -0.115502 -0.001620 -0.108030
v -0.043587 0.145042 -0.060592
v -0.057321 0.148327 -0.063011
v -0.072460 -0.000875 -0.060693
v -0.063288 -0.002132 -0.059124
v -0.037906 0.121357 -0.024334
v -0.030112 0.123426 -0.018971
v -0.019658 -0.000891 -0.016548
v -0.028905 -0.001819 -0.022797
v -0.028119 0.137654 -0.020075
v -0.018250 0.139997 -0.015059
v -0.023639 -0.001614 -0.019097
v -0.030153 -0.001236 -0.022345
v -0.056225 0.179697 -0.017825
v -0.042031 -0.001255 -0.037032
v -0.042133 0.181743 -0.018940
v -0.058459 -0.001475 -0.035322
v -0.106501 0.144035 -0.084924
v -0.117781 0.147599 -0.086186
v -0.125607 -0.001148 -0.081437
v -0.117985 -0.001487 -0.080723
v -0.068086 0.167539 -0.032324
v -0.062770 -0.001672 -0.039503
v -0.056607 0.167538 -0.025605
v -0.073635 -0.000983 -0.045731
v -0.097473 0.129408 -0.054089
v -0.089182 0.131495 -0.047726
v -0.093906 -0.001646 -0.054164
v -0.099450 -0.001219 -0.058189
v -0.028401 0.210341 -0.009982
v -0.044644 0.212846 -0.012490
v -0.046725 -0.001181 -0.021569
v -0.027747 -0.001545 -0.018518
v -0.217094 0.194527 -0.105347
v -0.204517 -0.001496 -0.101674
v -0.203802 0.198341 -0.097391
v -0.213364 -0.001299 -0.106900
v -0.188130 0.189797 -0.078834
v -0.212276 -0.000903 -0.097814
v -0.204577 0.193397 -0.086749
v -0.201342 -0.002089 -0.092547
v -0.231357 0.161852 -0.095499
v -0.209865 -0.001147 -0.091704
v -0.216912 0.164232 -0.101560
v -0.219483 -0.001711 -0.087827
v -0.102663 -0.001455 -0.039853
v -0.090526 -0.001253 -0.034690
v -0.099100 0.209451 -0.025980
v -0.114704 0.209192 -0.032620
v -0.173073 0.178953 -0.042744
v -0.189541 0.181266 -0.048265
v -0.183787 -0.001202 -0.064162
v -0.172981 -0.001626 -0.060295
v -0.116451 -0.001693 -0.037873
v -0.111810 0.126976 -0.042257
v -0.124442 -0.000935 -0.037429
v -0.101536 0.126002 -0.042827
v -0.104689 0.188251 -0.015280
v -0.087861 -0.001104 -0.028015
v -0.090373 0.189711 -0.019290
v -0.101406 -0.001702 -0.024192
v -0.039712 -0.001528 -0.012105
v -0.041593 0.162922 -0.005721
v -0.049688 -0.001155 -0.009680
v -0.028769 0.162443 -0.008844
v -0.131033 0.152498 -0.043191
v -0.122825 0.154460 -0.041520
v -0.118200 -0.001148 -0.025017
v -0.127160 -0.001699 -0.027083
v -0.127747 0.211730 -0.023924
v -0.139424 0.212820 -0.022298
v -0.120199 -0.001772 -0.019909
v -0.107703 -0.000763 -0.021805
v -0.065303 0.179471 -0.021002
v -0.057442 -0.001840 -0.013732
v -0.052914 0.180548 -0.027870
v -0.071906 -0.000923 -0.005996
v -0.109785 0.118960 -0.011490
v -0.112020 -0.001576 -0.015979
v -0.116915 0.119860 -0.017612
v -0.103679 -0.001172 -0.008948
v -0.064844 0.133055 0.001974
v -0.047510 -0.001110 -0.004473
v -0.057574 0.134919 0.002248
v -0.055526 -0.001755 -0.004580
v -0.247465 0.200694 -0.009125
v -0.220968 -0.001020 -0.012617
v -0.229547 0.203939 -0.016369
v -0.232849 -0.001907 -0.007816
v -0.184428 0.201157 -0.009954
v -0.173234 -0.001388 -0.002415
v -0.168572 0.201989 -0.008785
v -0.188201 -0.001343 -0.003590
v -0.071388 0.165170 0.006943
v -0.077655 -0.001397 -0.001602
v -0.083241 0.165828 0.001435
v -0.066475 -0.001332 0.003621
v -0.237955 0.182665 0.005730
v -0.250743 0.184241 0.012234
v -0.243783 -0.001567 0.015391
v -0.228913 -0.001181 0.007820
v -0.153058 0.161350 0.006546
v -0.168636 0.163007 0.007914
v -0.163469 -0.001332 0.013035
v -0.153215 -0.001424 0.011998
v -0.115833 0.119386 0.012889
v -0.121251 0.121127 0.016518
v -0.133577 -0.001110 0.016035
v -0.127537 -0.001755 0.012118
v -0.166358 0.208727 0.023705
v -0.179900 0.210872 0.032842
v -0.180411 -0.001387 0.030393
v -0.164660 -0.001350 0.019671
v -0.083607 0.144301 0.015939
v -0.082354 -0.001505 0.010935
v -0.076445 0.144607 0.007024
v -0.089093 -0.001195 0.019353
v -0.164910 0.148736 0.018655
v -0.146576 -0.001202 0.030738
v -0.150804 0.150767 0.015439
v -0.155945 -0.001625 0.032669
v -0.059643 0.126359 0.012166
v -0.055313 -0.001425 0.010968
v -0.055189 0.127442 0.006767
v -0.060171 -0.001284 0.016791
v -0.075162 -0.001208 0.021189
v -0.067183 -0.001582 0.016900
v -0.064754 0.143334 0.010625
v -0.075013 0.143814 0.016140
v -0.134798 -0.001394 0.042698
v -0.140748 0.137857 0.050996
v -0.143449 -0.001335 0.043801
v -0.129625 0.137781 0.049585
v -0.067202 0.169173 0.014824
v -0.044261 -0.001061 0.015208
v -0.051258 0.171956 0.011333
v -0.054863 -0.001844 0.017387
v -0.201012 -0.001226 0.078600
v -0.212990 -0.001558 0.081071
v -0.215546 0.193994 0.089232
v -0.200147 0.194422 0.086052
v -0.105811 -0.001467 0.040917
v -0.122491 0.209363 0.039630
v -0.113210 -0.001237 0.051847
v -0.112984 0.209067 0.025573
v -0.081403 0.192189 0.049687
v -0.070159 -0.000807 0.025531
v -0.074343 0.195132 0.036506
v -0.078319 -0.001899 0.041113
v -0.156616 0.201090 0.065290
v -0.139728 -0.001362 0.069141
v -0.140368 0.202993 0.054512
v -0.150546 -0.001378 0.076056
v -0.172920 0.203230 0.122123
v -0.167457 -0.001211 0.090085
v -0.158856 0.207841 0.114114
v -0.176571 -0.001453 0.095949
v -0.153919 0.193632 0.091898
v -0.137279 -0.001010 0.076850
v -0.143579 0.196251 0.080894
v -0.149320 -0.001706 0.089836
v -0.136803 0.191409 0.103507
v -0.131261 -0.001224 0.081762
v -0.121602 0.193771 0.092911
v -0.141225 -0.001592 0.088866
v -0.071120 0.190204 0.044807
v -0.049579 -0.000858 0.030765
v -0.060307 0.193038 0.034684
v -0.062433 -0.001850 0.042510
v -0.146341 -0.001478 0.102568
v -0.132190 0.195935 0.118438
v -0.152281 -0.001222 0.113444
v -0.124545 0.195605 0.104459
v -0.200015 -0.001379 0.155409
v -0.192650 -0.001354 0.147921
v -0.189632 0.166592 0.152853
v -0.199101 0.166559 0.162480
v -0.131635 -0.001567 0.109008
v -0.123469 -0.001103 0.100193
v -0.139038 0.190614 0.097439
v -0.149540 0.190016 0.108771
v -0.074311 0.188003 0.054518
v -0.077865 0.192271 0.068939
v -0.079131 -0.001243 0.073517
v -0.076652 -0.001436 0.063879
v -0.148238 0.158623 0.140675
v -0.156986 0.160318 0.149516
v -0.158068 -0.001345 0.148569
v -0.147758 -0.001391 0.138350
v -0.157304 -0.001118 0.155079
v -0.148280 -0.001702 0.151566
v -0.139059 0.153111 0.152094
v -0.150658 0.153861 0.156618
v -0.082885 -0.001405 0.085088
v -0.083124 0.138692 0.091845
v -0.085329 -0.001319 0.093498
v -0.079974 0.138581 0.081033
v -0.098174 0.158362 0.088292
v -0.088852 0.161950 0.079836
v -0.076808 -0.001258 0.087794
v -0.083276 -0.001428 0.093198
v -0.144045 0.154380 0.172782
v -0.145947 0.158099 0.184812
v -0.152909 -0.001178 0.190295
v -0.151614 -0.001471 0.182201
v -0.128578 0.200547 0.150609
v -0.113048 -0.001331 0.148052
v -0.114162 0.202575 0.137619
v -0.122645 -0.001426 0.156503
v -0.017347 0.135767 0.024285
v -0.022969 0.136499 0.033456
v -0.024087 -0.001312 0.031987
v -0.018799 -0.001439 0.023303
v -0.067835 -0.001255 0.100044
v -0.068273 0.120231 0.113565
v -0.072382 -0.001519 0.106162
v -0.062426 0.120571 0.105699
v -0.027592 0.146562 0.038641
v -0.029997 0.147057 0.050006
v -0.028056 -0.001429 0.045857
v -0.025849 -0.001291 0.035117
v -0.138417 0.121192 0.232642
v -0.124453 -0.000916 0.210839
v -0.137386 0.124811 0.223226
v -0.125399 -0.001612 0.217264
v -0.076480 -0.001628 0.141690
v -0.073921 -0.001022 0.134609
v -0.078889 0.119288 0.143884
v -0.082174 0.118508 0.152989
v -0.078974 -0.001576 0.157871
v -0.075818 -0.001091 0.150546
v -0.085342 0.126295 0.155703
v -0.089400 0.125672 0.165120
v -0.048806 0.208231 0.094501
v -0.046112 0.209114 0.110719
v -0.045550 -0.001381 0.106535
v -0.048083 -0.001352 0.091217
v -0.071711 0.125531 0.167171
v -0.072276 0.127909 0.157132
v -0.069747 -0.001491 0.160004
v -0.069417 -0.001302 0.166649
v -0.057110 -0.001305 0.141003
v -0.050334 0.192654 0.153715
v -0.055822 -0.001453 0.153072
v -0.051984 0.192845 0.138198
v -0.071235 0.191790 0.182918
v -0.069114 0.192899 0.197914
v -0.065654 -0.001257 0.197471
v -0.067676 -0.001509 0.183297
v -0.002590 0.175933 0.054555
v -0.011979 0.177468 0.064781
v -0.020819 -0.001537 0.050569
v -0.009608 -0.001209 0.038947
v -0.032492 0.141756 0.120443
v -0.028091 -0.001338 0.109304
v -0.025412 0.143290 0.111865
v -0.036330 -0.001397 0.119339
v -0.054284 -0.001401 0.227278
v -0.051751 0.151984 0.219975
v -0.053608 -0.001325 0.217711
v -0.052612 0.151886 0.232276
v -0.012532 0.183416 0.015600
v -0.014908 0.186267 0.025257
v -0.010723 -0.000893 0.045583
v -0.008239 -0.002081 0.034852
v -0.028870 0.172866 0.186943
v -0.032499 -0.001273 0.173779
v -0.031054 0.173855 0.173450
v -0.030487 -0.001489 0.186542
v -0.015514 0.123018 0.088065
v -0.013325 -0.001150 0.073173
v -0.017759 0.124669 0.078689
v -0.010827 -0.001574 0.084198
v -0.018129 -0.001542 0.142576
v -0.027441 0.209771 0.150956
v -0.014481 -0.001137 0.155266
v -0.032135 0.209250 0.134641
v -0.014368 -0.001588 0.204536
v -0.017009 -0.001075 0.196968
v -0.031078 0.125729 0.211295
v -0.027690 0.125068 0.221026
v -0.006734 -0.001472 0.199251
v -0.011459 -0.001229 0.190645
v -0.016708 0.155479 0.199019
v -0.010639 0.155166 0.210088
v 0.010532 0.124035 0.196138
v -0.002311 -0.001333 0.186934
v 0.011141 0.125332 0.184041
v -0.002550 -0.001423 0.194913
v 0.008203 0.120996 0.131639
v 0.000783 -0.001543 0.132432
v 0.004565 0.121104 0.122719
v 0.004282 -0.001146 0.140806
v 0.006748 0.129751 0.081890
v 0.003111 -0.001142 0.066815
v 0.007152 0.130866 0.071623
v 0.002728 -0.001654 0.076540
v 0.003998 0.137743 0.077561
v 0.004460 -0.001397 0.070105
v -0.000008 0.138933 0.064806
v 0.007047 -0.001324 0.078512
v 0.014689 0.199609 0.150097
v 0.012216 0.200979 0.165597
v 0.015531 -0.001794 0.156256
v 0.018321 -0.000966 0.138269
v 0.014986 0.208495 0.107826
v 0.017841 0.213420 0.123995
v 0.019629 -0.001146 0.131557
v 0.017585 -0.001488 0.120712
v 0.045894 -0.001420 0.246521
v 0.043442 -0.001300 0.237830
v 0.047073 0.143149 0.239687
v 0.050227 0.142995 0.250862
v 0.019023 -0.001485 0.096297
v 0.020358 -0.001213 0.088223
v 0.021293 0.129633 0.093573
v 0.019582 0.129284 0.103954
v 0.009999 -0.001594 0.039690
v 0.010086 0.146045 0.039588
v 0.010324 -0.001068 0.048882
v 0.009668 0.145368 0.027770
v 0.052324 0.181658 0.189240
v 0.046531 -0.001424 0.177383
v 0.042412 0.183461 0.179018
v 0.058050 -0.001316 0.189331
v 0.072696 0.122382 0.232292
v 0.075702 -0.001576 0.231036
v 0.072409 0.122420 0.222567
v 0.075917 -0.001105 0.240195
v 0.062356 0.204556 0.197230
v 0.065749 -0.001471 0.182358
v 0.057735 0.206520 0.181876
v 0.071102 -0.001271 0.200254
v 0.034381 0.165584 0.091102
v 0.027050 -0.001154 0.074398
v 0.027929 0.167666 0.084747
v 0.034126 -0.001689 0.081375
v 0.008143 0.205048 0.046907
v 0.010714 -0.001062 0.023264
v 0.003736 0.207698 0.031521
v 0.015742 -0.001657 0.041328
v 0.057125 0.120691 0.113910
v 0.046812 -0.001095 0.102846
v 0.051449 0.122413 0.106368
v 0.053493 -0.001626 0.111690
v 0.102615 0.134136 0.208464
v 0.100861 -0.001327 0.195698
v 0.098766 0.137071 0.198524
v 0.103295 -0.001390 0.202390
v 0.052241 0.150843 0.113603
v 0.057759 -0.001465 0.105821
v 0.047338 0.152065 0.106827
v 0.062969 -0.001224 0.113219
v 0.051486 0.201266 0.064258
v 0.060206 0.203188 0.071127
v 0.049997 -0.001367 0.081396
v 0.040651 -0.001369 0.073768
v 0.124412 0.133767 0.207526
v 0.133266 0.134814 0.213290
v 0.133758 -0.001575 0.203454
v 0.123360 -0.001173 0.196938
v 0.124282 0.124192 0.181770
v 0.110186 -0.000945 0.163769
v 0.115432 0.125756 0.177442
v 0.118567 -0.001905 0.167929
v 0.104870 0.138054 0.133240
v 0.098702 -0.001532 0.135520
v 0.107962 0.138994 0.140279
v 0.095514 -0.001122 0.127874
v 0.014663 0.157618 0.005150
v 0.025838 0.158679 0.010792
v 0.021170 -0.001212 0.024143
v 0.010654 -0.001566 0.018700
v 0.162265 0.157556 0.196186
v 0.150642 -0.001058 0.177634
v 0.154994 0.160251 0.182857
v 0.155474 -0.001849 0.186476
v 0.130679 0.200748 0.140422
v 0.112716 -0.001267 0.130878
v 0.115509 0.205229 0.135758
v 0.122885 -0.001423 0.133946
v 0.064349 0.191092 0.067827
v 0.050076 -0.001029 0.050588
v 0.056501 0.192745 0.054943
v 0.057462 -0.001797 0.062822
v 0.011765 0.193527 0.004251
v 0.025978 0.198216 0.009802
v 0.028970 -0.001108 0.025337
v 0.019508 -0.001509 0.021332
v 0.016688 -0.001764 0.019004
v 0.011256 0.150272 0.010164
v 0.026121 -0.000840 0.019840
v -0.000872 0.149083 0.009082
v 0.191980 0.168723 0.168549
v 0.174945 -0.000683 0.146680
v 0.185262 0.171633 0.157296
v 0.182830 -0.002015 0.159987
v 0.139300 0.143959 0.110371
v 0.144923 -0.001433 0.119071
v 0.144522 0.146859 0.120592
v 0.141492 -0.001333 0.112261
v 0.152508 -0.001569 0.115501
v 0.143146 -0.001100 0.106342
v 0.156283 0.208130 0.105413
v 0.168324 0.207526 0.117184
v 0.144272 0.146913 0.087560
v 0.150308 0.147823 0.093118
v 0.134450 -0.001582 0.095035
v 0.128079 -0.001047 0.088931
v 0.112700 0.152353 0.093733
v 0.118871 -0.001737 0.079519
v 0.101025 0.152127 0.090352
v 0.129815 -0.000901 0.082829
v 0.107635 0.122591 0.064827
v 0.117223 0.124963 0.066924
v 0.114582 -0.001466 0.068269
v 0.108253 -0.001316 0.066779
v 0.157778 0.187169 0.083521
v 0.135097 -0.000984 0.078179
v 0.143513 0.188915 0.079722
v 0.148618 -0.001855 0.081772
v 0.149748 0.143444 0.078049
v 0.162967 0.144834 0.082367
v 0.157775 -0.001359 0.081930
v 0.149086 -0.001382 0.079031
v 0.097293 0.145548 0.044259
v 0.104039 -0.001369 0.050529
v 0.107357 0.146186 0.049884
v 0.094559 -0.001368 0.045171
v 0.168961 0.178031 0.070817
v 0.156395 -0.001322 0.070882
v 0.155103 0.178924 0.068391
v 0.169488 -0.001427 0.073176
v 0.116718 0.161734 0.042595
v 0.124272 0.163404 0.047297
v 0.123398 -0.001315 0.050695
v 0.115233 -0.001448 0.045467
v 0.025260 0.127523 0.018703
v 0.037411 0.130059 0.016846
v 0.046346 -0.001026 0.015215
v 0.038258 -0.001898 0.016437
v 0.071644 -0.001433 0.025368
v 0.076302 0.138110 0.019405
v 0.080273 -0.001283 0.024048
v 0.065206 0.137916 0.021093
v 0.043292 0.141087 0.010349
v 0.036730 -0.001574 0.011411
v 0.032359 0.142217 0.008366
v 0.049449 -0.001174 0.013617
v 0.093164 0.150406 0.017196
v 0.104730 0.152022 0.026057
v 0.099233 -0.001319 0.027211
v 0.091591 -0.001445 0.021388
v 0.153214 0.143071 0.037458
v 0.154119 -0.001902 0.038302
v 0.142402 0.143675 0.040810
v 0.166600 -0.000864 0.034432
v 0.128324 0.182159 0.025066
v 0.103196 -0.001049 0.021609
v 0.111273 0.185114 0.029297
v 0.114525 -0.001862 0.018899
v 0.177066 0.151955 0.035246
v 0.191760 0.153948 0.035707
v 0.191995 -0.001224 0.030057
v 0.182281 -0.001592 0.029843
v 0.174431 0.157809 0.023730
v 0.186804 0.159407 0.024076
v 0.185758 -0.001399 0.022659
v 0.171330 -0.001339 0.022300
v 0.057755 0.172930 -0.007574
v 0.070911 0.176323 -0.003357
v 0.064751 -0.001479 0.007080
v 0.056100 -0.001309 0.004062
v 0.066973 0.160513 0.019934
v 0.059504 -0.001324 0.002304
v 0.054510 0.161316 0.017165
v 0.071249 -0.001425 0.005055
v 0.042891 0.136554 -0.002483
v 0.038080 -0.001403 0.000918
v 0.035355 0.137780 -0.001969
v 0.046247 -0.001315 0.000243
v 0.066581 0.170402 -0.005286
v 0.079696 0.174808 -0.007957
v 0.092276 -0.001018 -0.001726
v 0.083343 -0.001557 -0.000210
v 0.097080 0.200867 -0.007390
v 0.101561 -0.001591 -0.001234
v 0.088294 0.202276 -0.000546
v 0.111045 -0.001034 -0.008600
v 0.029939 0.139566 0.002344
v 0.040859 0.143262 0.003236
v 0.051499 -0.001054 -0.003472
v 0.044085 -0.001537 -0.004001
v 0.166644 0.177683 -0.016523
v 0.175987 0.178906 -0.019658
v 0.165953 -0.001575 -0.017912
v 0.155870 -0.001058 -0.014570
v 0.184650 0.209393 -0.032153
v 0.182800 -0.001446 -0.021247
v 0.170891 0.211069 -0.017259
v 0.191900 -0.001248 -0.030992
v 0.074542 0.182082 -0.001386
v 0.087512 0.181887 -0.007808
v 0.066871 -0.001779 -0.013642
v 0.054729 -0.000848 -0.007477
v 0.098597 0.157577 -0.025199
v 0.094705 -0.001729 -0.020458
v 0.086201 0.158621 -0.024398
v 0.109070 -0.001028 -0.021432
v 0.188466 0.125737 -0.034547
v 0.196915 0.126984 -0.039753
v 0.190994 -0.001402 -0.046942
v 0.181293 -0.001336 -0.040643
v 0.181281 0.138322 -0.039147
v 0.188994 0.139135 -0.050242
v 0.172501 -0.001492 -0.048919
v 0.167577 -0.001176 -0.041546
v 0.212718 0.131157 -0.074833
v 0.207992 -0.001145 -0.060169
v 0.207152 0.132269 -0.066057
v 0.213209 -0.001651 -0.068515
v 0.138443 0.120504 -0.039783
v 0.147980 0.121269 -0.040678
v 0.147960 -0.001270 -0.049600
v 0.138946 -0.001492 -0.048696
vn -0.4389 0.0084 -0.8985
vn -0.4306 0.0072 -0.9025
vn -0.4392 0.0084 -0.8984
vn -0.4302 0.0072 -0.9027
vn -0.4616 -0.0027 0.8871
vn -0.4710 -0.0036 0.8821
vn -0.4610 -0.0027 0.8874
vn -0.4715 -0.0037 0.8818
vn -0.3446 0.0348 -0.9381
vn -0.3388 0.0341 -0.9402
vn -0.3448 0.0348 -0.9380
vn -0.3384 0.0341 -0.9404
vn -0.5363 0.0107 -0.8440
vn -0.5359 0.0108 -0.8442
vn -0.5431 0.0094 -0.8396
vn -0.5435 0.0094 -0.8394
vn 0.0070 0.1123 0.9936
vn 0.0066 0.1124 0.9936
vn 0.0177 0.1120 0.9936
vn 0.0184 0.1120 0.9935
vn 0.1601 -0.0769 0.9841
vn 0.1604 -0.0769 0.9841
vn 0.1550 -0.0764 0.9850
vn 0.1547 -0.0764 0.9850
vn -0.2425 0.0223 -0.9699
vn -0.2497 0.0223 -0.9681
vn -0.2423 0.0223 -0.9700
vn -0.2500 0.0223 -0.9680
vn -0.6976 0.0626 -0.7137
vn -0.6974 0.0627 -0.7139
vn -0.7028 0.0616 -0.7087
vn -0.7030 0.0615 -0.7085
vn -0.2106 -0.0303 0.9771
vn -0.2115 -0.0302 0.9769
vn -0.3908 0.0351 -0.9198
vn -0.3767 0.0345 -0.9257
vn -0.3912 0.0351 -0.9196
vn -0.3760 0.0345 -0.9260
vn -0.2478 0.0461 -0.9677
vn -0.2471 0.0462 -0.9679
vn -0.2590 0.0455 -0.9648
vn -0.2596 0.0454 -0.9646
vn 0.1182 0.0190 0.9928
vn 0.1081 0.0179 0.9940
vn 0.1186 0.0190 0.9928
vn 0.1074 0.0178 0.9941
vn 0.2710 -0.0276 0.9622
vn 0.2749 -0.0271 0.9611
vn 0.2708 -0.0276 0.9622
vn 0.2751 -0.0271 0.9610
vn -0.8191 -0.0318 -0.5727
vn -0.8194 -0.0318 -0.5723
vn -0.9678 0.0483 -0.2470
vn -0.9674 0.0482 -0.2487
vn -0.6271 0.0108 -0.7789
vn -0.6332 0.0118 -0.7739
vn -0.6269 0.0108 -0.7790
vn -0.6336 0.0119 -0.7736
vn 0.7904 0.0370 0.6115
vn 0.7878 0.0367 0.6148
vn 0.7905 0.0370 0.6113
vn 0.7877 0.0366 0.6150
vn -0.8125 -0.0440 -0.5813
vn -0.8128 -0.0441 -0.5809
vn -0.8052 -0.0416 -0.5915
vn -0.8048 -0.0415 -0.5921
vn -0.9983 -0.0239 -0.0523
vn -0.9986 -0.0236 -0.0473
vn -0.9983 -0.0240 -0.0526
vn -0.9986 -0.0236 -0.0470
vn 0.6150 0.0287 0.7880
vn 0.6146 0.0288 0.7883
vn 0.6205 0.0280 0.7837
vn 0.6208 0.0280 0.7835
vn -0.9310 -0.0167 -0.3645
vn -0.9310 -0.0167 -0.3646
vn -0.9311 -0.0167 -0.3645
vn -0.9922 0.1144 -0.0490
vn -0.9922 0.1144 -0.0496
vn -0.9927 0.1139 -0.0393
vn -0.9927 0.1139 -0.0387
vn 0.3062 -0.0116 0.9519
vn 0.3017 -0.0116 0.9533
vn 0.3063 -0.0116 0.9519
vn 0.3014 -0.0116 0.9534
vn -0.9911 0.0325 -0.1293
vn -0.9910 0.0325 -0.1298
vn -0.9933 0.0313 -0.1110
vn -0.9934 0.0312 -0.1100
vn -0.9415 0.0367 -0.3349
vn -0.9399 0.0363 -0.3396
vn -0.9416 0.0367 -0.3347
vn -0.9398 0.0362 -0.3399
vn -0.9508 -0.0437 -0.3067
vn -0.9509 -0.0437 -0.3063
vn -0.9466 -0.0433 -0.3194
vn -0.9465 -0.0433 -0.3199
vn 0.8224 -0.0468 0.5670
vn 0.8227 -0.0468 0.5665
vn 0.8124 -0.0464 0.5813
vn 0.8118 -0.0464 0.5821
vn 0.7659 -0.0643 0.6398
vn 0.7660 -0.0643 0.6396
vn 0.7623 -0.0642 0.6440
vn 0.7621 -0.0642 0.6443
vn -0.8063 0.0265 -0.5909
vn -0.8060 0.0265 -0.5913
vn -0.8147 0.0255 -0.5793
vn -0.8150 0.0255 -0.5789
vn -0.9284 -0.0410 0.3694
vn -0.9286 -0.0410 0.3689
vn -0.9286 -0.0410 0.3688
vn -0.9867 -0.0896 -0.1354
vn -0.9874 -0.0889 -0.1311
vn -0.9867 -0.0896 -0.1356
vn -0.9874 -0.0888 -0.1308
vn -0.8861 -0.0310 0.4624
vn -0.8850 -0.0311 0.4645
vn -0.8862 -0.0310 0.4623
vn -0.8849 -0.0311 0.4647
vn -0.8762 0.0353 -0.4807
vn -0.8758 0.0354 -0.4813
vn -0.8817 0.0344 -0.4705
vn -0.8820 0.0344 -0.4699
vn -0.8992 0.1032 -0.4252
vn -0.8991 0.1032 -0.4254
vn -0.9016 0.1030 -0.4201
vn -0.9017 0.1030 -0.4198
vn -0.8820 0.0180 0.4709
vn -0.8821 0.0180 0.4708
vn -0.8801 0.0173 0.4745
vn -0.8800 0.0172 0.4747
vn -0.9552 0.0381 0.2936
vn -0.9552 0.0381 0.2937
vn -0.9557 0.0382 0.2919
vn -0.9557 0.0382 0.2918
vn -0.9839 -0.0751 -0.1619
vn -0.9840 -0.0751 -0.1614
vn -0.9812 -0.0739 -0.1784
vn -0.9810 -0.0739 -0.1793
vn -0.9472 -0.0563 0.3158
vn -0.9463 -0.0560 0.3184
vn -0.9472 -0.0563 0.3157
vn -0.9463 -0.0560 0.3185
vn -0.7806 0.0320 0.6242
vn -0.7822 0.0319 0.6223
vn -0.7822 0.0319 0.6222
vn -0.9932 -0.0066 0.1164
vn -0.9931 -0.0066 0.1169
vn -0.9931 -0.0067 0.1169
vn 0.6788 -0.0144 0.7342
vn 0.7571 0.0177 0.6531
vn 0.7566 0.0178 0.6536
vn -0.8980 0.0989 0.4287
vn -0.9048 0.0972 0.4146
vn -0.8978 0.0989 0.4291
vn -0.9052 0.0971 0.4138
vn -0.9647 0.0035 0.2633
vn -0.9646 0.0035 0.2636
vn -0.9767 -0.0944 0.1929
vn -0.9756 -0.0943 0.1984
vn -0.9767 -0.0944 0.1926
vn -0.9755 -0.0943 0.1987
vn 0.7443 0.0175 0.6676
vn 0.7405 0.0173 0.6719
vn 0.7444 0.0175 0.6675
vn 0.7403 0.0173 0.6720
vn -0.7614 0.0950 0.6413
vn -0.7665 0.0944 0.6353
vn -0.7611 0.0951 0.6417
vn -0.7668 0.0944 0.6350
vn -0.7973 -0.0116 0.6035
vn -0.7972 -0.0116 0.6036
vn -0.8139 0.0264 0.5804
vn -0.8138 0.0264 0.5805
vn -0.8169 0.0266 0.5761
vn -0.8171 0.0267 0.5759
vn -0.5762 0.0547 0.8154
vn -0.5763 0.0547 0.8154
vn -0.9202 0.0441 0.3890
vn -0.9201 0.0441 0.3891
vn -0.9202 0.0441 0.3889
vn -0.9310 0.0694 0.3583
vn -0.9312 0.0694 0.3579
vn -0.9266 0.0690 0.3697
vn -0.9264 0.0690 0.3701
vn 0.9697 0.0069 0.2443
vn 0.9692 0.0065 0.2463
vn 0.9697 0.0069 0.2442
vn 0.9691 0.0065 0.2464
vn -0.6541 0.0699 0.7532
vn -0.6542 0.0699 0.7530
vn -0.7377 -0.0416 0.6738
vn -0.7376 -0.0416 0.6739
vn -0.7403 -0.0418 0.6709
vn -0.7404 -0.0418 0.6708
vn -0.2057 -0.0060 0.9786
vn -0.2060 -0.0060 0.9785
vn -0.2061 -0.0060 0.9785
vn -0.2473 -0.0347 0.9683
vn -0.2474 -0.0347 0.9683
vn -0.5952 -0.0403 0.8026
vn -0.5965 -0.0402 0.8016
vn -0.8157 0.0461 0.5766
vn -0.8157 0.0461 0.5767
vn -0.8158 0.0461 0.5766
vn -0.5339 -0.0370 0.8448
vn -0.5256 -0.0364 0.8499
vn -0.5342 -0.0370 0.8445
vn -0.5251 -0.0364 0.8503
vn 0.9985 -0.0380 -0.0395
vn 0.9985 -0.0380 -0.0397
vn 0.9987 -0.0376 -0.0339
vn 0.9987 -0.0376 -0.0336
vn 0.9993 -0.0210 -0.0324
vn 0.9992 -0.0210 -0.0327
vn 0.9995 -0.0206 -0.0250
vn 0.9995 -0.0206 -0.0246
vn -0.7049 0.0001 0.7094
vn -0.7051 0.0002 0.7091
vn -0.7003 -0.0005 0.7139
vn -0.7000 -0.0005 0.7141
vn 0.9994 0.0300 0.0194
vn 0.9993 0.0299 0.0215
vn 0.9994 0.0300 0.0193
vn 0.9993 0.0299 0.0216
vn -0.0154 -0.0120 0.9998
vn -0.0156 -0.0120 0.9998
vn -0.0112 -0.0125 0.9999
vn -0.0109 -0.0125 0.9999
vn -0.4337 0.0571 0.8992
vn -0.4365 0.0570 0.8979
vn -0.4336 0.0571 0.8993
vn -0.4366 0.0570 0.8978
vn -0.4520 -0.0394 0.8911
vn -0.4518 -0.0394 0.8913
vn -0.4569 -0.0388 0.8887
vn -0.4571 -0.0387 0.8886
vn 0.8850 0.0055 -0.4655
vn 0.8849 0.0055 -0.4657
vn 0.8883 0.0064 -0.4591
vn 0.8885 0.0065 -0.4589
vn 0.7051 -0.0516 -0.7072
vn 0.7045 -0.0517 -0.7079
vn 0.7044 -0.0517 -0.7079
vn -0.1658 0.0321 0.9856
vn -0.1659 0.0321 0.9856
vn -0.1644 0.0318 0.9859
vn -0.1643 0.0318 0.9859
vn 0.5608 0.0310 -0.8274
vn 0.5610 0.0310 -0.8272
vn 0.5577 0.0304 -0.8295
vn 0.5576 0.0304 -0.8296
vn 0.4514 0.0083 -0.8923
vn 0.4515 0.0083 -0.8922
vn 0.4468 0.0081 -0.8946
vn 0.4466 0.0081 -0.8947
vn 0.0932 -0.0979 0.9908
vn 0.1037 -0.0969 0.9899
vn 0.0926 -0.0979 0.9909
vn 0.1043 -0.0969 0.9898
vn -0.0993 0.0370 0.9944
vn -0.0996 0.0370 0.9943
vn -0.0920 0.0360 0.9951
vn -0.0916 0.0360 0.9951
vn -0.5042 -0.0524 0.8620
vn -0.4994 -0.0524 0.8648
vn -0.5045 -0.0524 0.8618
vn -0.4991 -0.0524 0.8649
vn 0.6055 0.0169 -0.7956
vn 0.6061 0.0170 -0.7952
vn 0.5892 0.0165 -0.8079
vn 0.5883 0.0165 -0.8085
vn -0.1586 -0.0403 0.9865
vn -0.1585 -0.0403 0.9865
vn -0.1593 -0.0402 0.9864
vn -0.1594 -0.0402 0.9864
vn -0.5100 -0.0166 0.8600
vn -0.5089 -0.0165 0.8607
vn -0.5088 -0.0165 0.8607
vn 0.4393 0.0337 -0.8977
vn 0.4369 0.0341 -0.8989
vn 0.4394 0.0337 -0.8977
vn 0.4367 0.0342 -0.8989
vn 0.3757 0.0711 0.9240
vn 0.3698 0.0703 0.9265
vn 0.3760 0.0711 0.9239
vn 0.3694 0.0703 0.9266
vn -0.3901 -0.0539 0.9192
vn -0.3902 -0.0539 0.9191
vn -0.3285 -0.0922 0.9400
vn -0.3281 -0.0923 0.9401
vn -0.3381 -0.0913 0.9367
vn -0.3387 -0.0912 0.9365
vn 0.0585 0.0319 0.9978
vn 0.0584 0.0319 0.9978
vn 0.2733 -0.0403 0.9611
vn 0.2731 -0.0404 0.9611
vn 0.2348 -0.0350 0.9714
vn 0.2352 -0.0350 0.9713
vn 0.2209 -0.0963 -0.9705
vn 0.2206 -0.0964 -0.9706
vn 0.2289 -0.0955 -0.9688
vn 0.2292 -0.0954 -0.9687
vn 0.1403 0.0236 0.9898
vn 0.1400 0.0236 0.9899
vn 0.1478 0.0238 0.9887
vn 0.1481 0.0238 0.9887
vn 0.4800 0.0559 0.8755
vn 0.4740 0.0558 0.8788
vn 0.4804 0.0559 0.8753
vn 0.4736 0.0558 0.8790
vn 0.6521 0.0161 -0.7580
vn 0.6444 0.0165 -0.7645
vn 0.6525 0.0161 -0.7576
vn 0.6440 0.0165 -0.7649
vn -0.0240 -0.0511 0.9984
vn -0.0099 -0.0493 0.9987
vn -0.0245 -0.0511 0.9984
vn -0.0094 -0.0492 0.9987
vn 0.3697 0.0325 0.9286
vn 0.3722 0.0328 0.9276
vn 0.3696 0.0325 0.9286
vn 0.3723 0.0329 0.9275
vn -0.0753 0.0329 0.9966
vn -0.0780 0.0328 0.9964
vn -0.0752 0.0329 0.9966
vn -0.0781 0.0328 0.9964
vn 0.4226 0.0306 -0.9058
vn 0.4229 0.0305 -0.9057
vn 0.4561 0.0322 0.8894
vn 0.4563 0.0322 0.8893
vn 0.4530 0.0324 0.8909
vn 0.4528 0.0324 0.8910
vn 0.0914 0.0339 0.9952
vn 0.0910 0.0339 0.9953
vn 0.1003 0.0332 0.9944
vn 0.1009 0.0332 0.9943
vn 0.5425 -0.0580 0.8381
vn 0.5426 -0.0580 0.8380
vn 0.5390 -0.0574 0.8403
vn 0.5389 -0.0574 0.8404
vn 0.5583 -0.0109 0.8295
vn 0.5581 -0.0109 0.8297
vn 0.5625 -0.0113 0.8267
vn 0.5627 -0.0113 0.8266
vn 0.7798 -0.0148 0.6259
vn 0.7803 -0.0148 0.6253
vn 0.7803 -0.0148 0.6252
vn 0.2065 0.1037 0.9729
vn 0.1970 0.1027 0.9750
vn 0.2069 0.1037 0.9729
vn 0.1964 0.1026 0.9752
vn 0.7692 0.0201 0.6387
vn 0.7680 0.0200 0.6401
vn 0.7693 0.0201 0.6386
vn 0.7680 0.0200 0.6402
vn 0.4743 0.0301 0.8798
vn 0.4744 0.0301 0.8798
vn 0.1259 -0.0536 0.9906
vn 0.1253 -0.0537 0.9907
vn 0.2084 0.0303 0.9776
vn 0.1997 0.0291 0.9794
vn 0.2087 0.0303 0.9775
vn 0.1992 0.0291 0.9795
vn -0.2029 0.0382 -0.9785
vn -0.2031 0.0382 -0.9784
vn 0.8268 0.0688 0.5582
vn 0.8270 0.0688 0.5579
vn 0.8268 0.0688 0.5583
vn 0.8824 -0.0075 0.4705
vn 0.8859 -0.0065 0.4639
vn 0.8822 -0.0075 0.4708
vn 0.8860 -0.0064 0.4636
vn 0.5464 0.0615 0.8353
vn 0.5381 0.0609 0.8407
vn 0.5467 0.0615 0.8351
vn 0.5375 0.0608 0.8411
vn 0.5210 -0.1185 0.8453
vn 0.5386 -0.1164 0.8345
vn 0.5204 -0.1186 0.8456
vn 0.5396 -0.1163 0.8339
vn 0.7279 0.0092 0.6856
vn 0.7327 0.0100 0.6805
vn 0.7276 0.0092 0.6859
vn 0.7330 0.0101 0.6802
vn 0.5782 -0.0751 0.8125
vn 0.5806 -0.0748 0.8108
vn 0.5781 -0.0751 0.8125
vn 0.5807 -0.0748 0.8107
vn 0.6797 0.0228 0.7331
vn 0.6738 0.0217 0.7386
vn 0.6801 0.0228 0.7328
vn 0.6735 0.0216 0.7389
vn 0.8721 -0.1010 0.4787
vn 0.8719 -0.1010 0.4792
vn 0.7126 -0.0334 0.7008
vn 0.7300 0.0691 0.6799
vn 0.7299 0.0691 0.6801
vn 0.9708 -0.0007 0.2398
vn 0.9709 -0.0007 0.2395
vn 0.9686 0.0003 0.2486
vn 0.9685 0.0003 0.2491
vn 0.7096 -0.0088 0.7045
vn 0.7100 -0.0089 0.7042
vn 0.7042 -0.0082 0.7099
vn 0.7039 -0.0082 0.7102
vn 0.3613 -0.0247 0.9321
vn 0.3618 -0.0248 0.9319
vn 0.3619 -0.0248 0.9319
vn 0.9602 -0.0118 0.2792
vn 0.9600 -0.0119 0.2798
vn -0.6509 -0.0848 -0.7544
vn -0.6513 -0.0848 -0.7540
vn -0.6384 -0.0831 -0.7652
vn -0.6377 -0.0830 -0.7658
vn 0.9852 -0.0373 0.1671
vn 0.9852 -0.0373 0.1673
vn 0.9864 -0.0382 0.1596
vn 0.9865 -0.0383 0.1592
vn 0.6654 0.0417 0.7453
vn 0.6604 0.0413 0.7498
vn 0.6656 0.0418 0.7452
vn 0.6601 0.0413 0.7501
vn 0.8521 -0.0125 0.5232
vn 0.8520 -0.0125 0.5233
vn 0.8539 -0.0127 0.5203
vn 0.8540 -0.0128 0.5202
vn 0.8023 -0.0632 0.5936
vn 0.9784 0.0070 0.2065
vn 0.9784 0.0070 0.2067
vn 0.9794 0.0068 0.2016
vn 0.9795 0.0067 0.2014
vn 0.9860 0.0874 0.1420
vn 0.9845 0.0852 0.1535
vn 0.9861 0.0875 0.1416
vn 0.9844 0.0850 0.1542
vn 0.9401 0.0125 0.3408
vn 0.9402 0.0126 0.3403
vn 0.9159 0.0524 0.3981
vn 0.9158 0.0524 0.3981
vn 0.9864 0.0059 -0.1641
vn 0.9864 0.0059 -0.1642
vn 0.9866 0.0060 -0.1632
vn 0.9866 0.0060 -0.1631
vn -0.9985 -0.0184 0.0518
vn -0.9985 -0.0184 0.0519
vn -0.9986 -0.0183 0.0502
vn -0.9986 -0.0183 0.0501
vn 0.9939 -0.0278 -0.1064
vn 0.9940 -0.0278 -0.1060
vn 0.9939 -0.0277 -0.1064
vn 0.9898 0.0180 -0.1413
vn 0.9898 0.0179 -0.1415
vn 0.7264 -0.0899 0.6814
vn 0.7269 -0.0900 0.6809
vn 0.7185 -0.0893 0.6897
vn 0.7181 -0.0893 0.6902
vn 0.7732 -0.0255 0.6337
vn 0.7727 -0.0256 0.6342
vn 0.7732 -0.0255 0.6336
vn 0.7727 -0.0256 0.6343
vn -0.9974 0.0131 -0.0703
vn -0.9975 0.0132 -0.0697
vn -0.9974 0.0131 -0.0704
vn 0.9731 0.0462 0.2256
vn 0.9731 0.0463 0.2258
vn 0.9743 0.0455 0.2207
vn 0.9743 0.0454 0.2205
vn 0.9871 -0.0085 -0.1602
vn 0.9877 -0.0088 -0.1561
vn 0.9870 -0.0084 -0.1604
vn 0.9877 -0.0088 -0.1559
vn 0.9734 0.0441 -0.2249
vn 0.9746 0.0435 -0.2195
vn 0.9733 0.0442 -0.2253
vn 0.9747 0.0435 -0.2192
vn 0.9593 0.0533 -0.2775
vn 0.9592 0.0533 -0.2777
vn 0.9378 0.1400 -0.3177
vn 0.9378 0.1400 -0.3178
vn 0.9380 0.1399 -0.3171
vn 0.8759 0.0550 -0.4793
vn 0.8762 0.0550 -0.4789
vn 0.8762 0.0550 -0.4788
vn 0.9938 -0.1046 0.0384
vn 0.9941 -0.1040 0.0292
vn 0.9938 -0.1047 0.0388
vn 0.9942 -0.1039 0.0286
vn 0.9240 -0.0584 -0.3778
vn 0.9222 -0.0583 -0.3823
vn 0.9241 -0.0584 -0.3776
vn 0.9221 -0.0583 -0.3825
vn 0.9988 -0.0319 0.0359
vn 0.9988 -0.0321 0.0376
vn 0.9988 -0.0319 0.0358
vn 0.9544 0.0191 -0.2978
vn 0.9555 0.0189 -0.2944
vn 0.9544 0.0191 -0.2980
vn 0.9556 0.0189 -0.2942
vn 0.9876 0.0089 0.1566
vn 0.9876 0.0089 0.1568
vn 0.9881 0.0088 0.1538
vn 0.9881 0.0088 0.1537
vn 0.9846 0.0020 -0.1748
vn 0.9847 0.0021 -0.1745
vn 0.9828 0.0009 -0.1847
vn 0.9827 0.0008 -0.1852
vn 0.9621 -0.0207 -0.2717
vn 0.9621 -0.0207 -0.2718
vn 0.9866 -0.0137 0.1626
vn 0.9866 -0.0137 0.1627
vn 0.9867 -0.0137 0.1622
vn 0.9994 -0.0006 -0.0353
vn 0.7197 0.0222 -0.6940
vn 0.7196 0.0222 -0.6940
vn 0.7197 0.0222 -0.6939
vn 0.9993 0.0245 -0.0292
vn 0.9994 0.0245 -0.0249
vn 0.9993 0.0245 -0.0294
vn 0.9994 0.0245 -0.0247
vn 0.9582 0.0363 -0.2839
vn 0.9574 0.0365 -0.2866
vn 0.9582 0.0363 -0.2837
vn 0.9573 0.0365 -0.2868
vn 0.7075 0.0396 -0.7056
vn 0.7032 0.0402 -0.7098
vn 0.7076 0.0396 -0.7055
vn 0.7031 0.0402 -0.7100
vn 0.9624 0.0428 -0.2682
vn 0.9628 0.0426 -0.2667
vn 0.9624 0.0428 -0.2683
vn 0.9629 0.0426 -0.2666
vn 0.7975 -0.0127 -0.6031
vn 0.7975 -0.0127 -0.6032
vn 0.9346 0.0214 -0.3551
vn 0.9394 0.0201 -0.3423
vn 0.9344 0.0214 -0.3555
vn 0.9396 0.0200 -0.3416
vn 0.8138 0.0590 -0.5781
vn 0.8152 0.0590 -0.5761
vn 0.8138 0.0590 -0.5782
vn 0.8153 0.0590 -0.5761
vn 0.6269 -0.0702 -0.7759
vn 0.6268 -0.0702 -0.7760
vn 0.6306 -0.0700 -0.7729
vn 0.6308 -0.0700 -0.7728
vn 0.5389 0.0625 -0.8400
vn 0.5393 0.0625 -0.8398
vn 0.5321 0.0621 -0.8444
vn 0.5317 0.0621 -0.8446
vn 0.4491 0.0775 -0.8901
vn 0.4503 0.0772 -0.8895
vn 0.4490 0.0775 -0.8902
vn 0.4504 0.0772 -0.8895
vn -0.9170 0.0470 0.3961
vn -0.9209 0.0470 0.3869
vn -0.9168 0.0470 0.3965
vn -0.9211 0.0470 0.3866
vn 0.4558 -0.0873 -0.8858
vn 0.4556 -0.0873 -0.8859
vn 0.4600 -0.0868 -0.8837
vn 0.4602 -0.0868 -0.8835
vn 0.8772 -0.0081 -0.4801
vn 0.2985 0.0185 -0.9542
vn 0.2896 0.0195 -0.9570
vn 0.2988 0.0185 -0.9541
vn 0.2891 0.0195 -0.9571
vn 0.8531 -0.0166 -0.5215
vn 0.8554 -0.0171 -0.5178
vn 0.8530 -0.0166 -0.5217
vn 0.8555 -0.0171 -0.5176
vn 0.3821 -0.0661 -0.9217
vn 0.3818 -0.0661 -0.9219
vn 0.3908 -0.0649 -0.9182
vn 0.3913 -0.0649 -0.9180
vn 0.0935 -0.0545 -0.9941
vn 0.0940 -0.0544 -0.9941
vn 0.0934 -0.0545 -0.9941
vn 0.8564 -0.0195 -0.5159
vn 0.8591 -0.0204 -0.5114
vn 0.8562 -0.0195 -0.5162
vn 0.8592 -0.0204 -0.5112
vn -0.8898 -0.0071 0.4564
vn -0.8929 -0.0076 0.4502
vn -0.8897 -0.0071 0.4566
vn -0.8931 -0.0076 0.4498
vn 0.6973 -0.0470 -0.7152
vn 0.6971 -0.0470 -0.7155
vn 0.6819 -0.0817 -0.7269
vn 0.6818 -0.0817 -0.7270
vn 0.6858 -0.0818 -0.7232
vn 0.6859 -0.0818 -0.7231
vn 0.2753 0.0992 -0.9562
vn 0.2808 0.0993 -0.9546
vn 0.2750 0.0992 -0.9563
vn 0.2811 0.0993 -0.9545
vn 0.2175 -0.0149 -0.9759
vn 0.2172 -0.0149 -0.9760
vn 0.2282 -0.0142 -0.9735
vn 0.2288 -0.0142 -0.9734
vn 0.2569 -0.0035 -0.9664
vn 0.2566 -0.0035 -0.9665
vn 0.3115 -0.0082 -0.9502
vn 0.3113 -0.0082 -0.9503
vn 0.3162 -0.0079 -0.9487
vn 0.3165 -0.0079 -0.9486
vn -0.4887 0.0148 0.8723
vn -0.4918 0.0146 0.8706
vn -0.4885 0.0148 0.8724
vn -0.4920 0.0146 0.8705
vn 0.1717 -0.0124 -0.9851
vn 0.1724 -0.0124 -0.9849
vn 0.1725 -0.0124 -0.9849
vn 0.5318 -0.0203 -0.8466
vn 0.5316 -0.0203 -0.8468
vn 0.5391 -0.0197 -0.8420
vn 0.5394 -0.0197 -0.8418
vn -0.1514 0.0020 -0.9885
vn -0.1515 0.0020 -0.9885
vn -0.1497 0.0023 -0.9887
vn -0.1496 0.0023 -0.9887
vn -0.1504 -0.0372 -0.9879
vn -0.1497 -0.0372 -0.9880
vn -0.1505 -0.0372 -0.9879
vn 0.1766 -0.0154 -0.9842
vn 0.1716 -0.0152 -0.9850
vn 0.1769 -0.0155 -0.9841
vn 0.1713 -0.0152 -0.9851
vn 0.6102 -0.0279 -0.7917
vn 0.6104 -0.0278 -0.7916
vn 0.6064 -0.0282 -0.7947
vn 0.6061 -0.0282 -0.7949
vn -0.2964 -0.0074 -0.9550
vn -0.2956 -0.0074 -0.9553
vn -0.2965 -0.0074 -0.9550
vn -0.2322 0.0502 -0.9714
vn -0.2292 0.0498 -0.9721
vn -0.2323 0.0502 -0.9713
vn -0.2290 0.0497 -0.9722
vn 0.0262 0.0364 -0.9990
vn 0.0264 0.0364 -0.9990
vn 0.0210 0.0359 -0.9991
vn 0.0207 0.0359 -0.9991
vn 0.0267 0.0086 -0.9996
vn 0.0268 0.0086 -0.9996
vn 0.0250 0.0085 -0.9997
vn 0.0249 0.0085 -0.9997
vn 0.3203 -0.0665 -0.9450
vn 0.3201 -0.0666 -0.9450
vn 0.3271 -0.0661 -0.9427
vn 0.3275 -0.0661 -0.9425
vn 0.2220 0.0955 -0.9704
vn 0.2275 0.0951 -0.9691
vn 0.2218 0.0955 -0.9704
vn 0.2278 0.0951 -0.9691
vn -0.0720 -0.0221 -0.9972
vn -0.0818 -0.0217 -0.9964
vn -0.0716 -0.0221 -0.9972
vn -0.0821 -0.0217 -0.9964
vn -0.1833 -0.0479 -0.9819
vn -0.1838 -0.0479 -0.9818
vn -0.1655 -0.0453 -0.9852
vn -0.1645 -0.0451 -0.9853
vn -0.6176 -0.0376 -0.7856
vn -0.6118 -0.0376 -0.7901
vn -0.6178 -0.0376 -0.7854
vn -0.6116 -0.0376 -0.7903
vn 0.0642 0.0511 -0.9966
vn 0.0641 0.0511 -0.9966
vn 0.0675 0.0516 -0.9964
vn 0.0677 0.0516 -0.9964
vn -0.3189 0.0086 -0.9477
vn -0.3191 0.0086 -0.9477
vn -0.3144 0.0086 -0.9493
vn -0.3142 0.0086 -0.9493
vn -0.7356 -0.0286 -0.6768
vn -0.7306 -0.0289 -0.6822
vn -0.7358 -0.0285 -0.6766
vn -0.7303 -0.0289 -0.6825
vn -0.4417 0.0780 -0.8938
vn -0.4414 0.0780 -0.8939
vn -0.4463 0.0780 -0.8915
vn -0.4466 0.0780 -0.8913
vn -0.0668 -0.0281 -0.9974
vn -0.0663 -0.0281 -0.9974
vn -0.0668 -0.0280 -0.9974
vn -0.5315 0.0717 -0.8440
vn -0.5309 0.0718 -0.8444
vn -0.5423 0.0708 -0.8372
vn -0.5429 0.0708 -0.8368
vn -0.8210 0.0910 -0.5636
vn -0.8208 0.0910 -0.5639
vn -0.8260 0.0908 -0.5563
vn -0.8264 0.0907 -0.5558
vn -0.8459 -0.0288 -0.5326
vn -0.8483 -0.0283 -0.5288
vn -0.8458 -0.0288 -0.5328
vn -0.8484 -0.0283 -0.5286
vn -0.0990 0.0723 -0.9925
vn -0.0989 0.0723 -0.9925
vn -0.1012 0.0721 -0.9923
vn -0.1013 0.0721 -0.9922
vt 0.494577 0.826464
vt 0.563991 0.000000
vt 0.559653 0.843818
vt 0.520607 0.000000
vt 0.132321 0.837310
vt 0.069414 0.000000
vt 0.067245 0.845987
vt 0.145336 0.000000
vt 0.872017 0.926247
vt 0.817787 0.000000
vt 0.783080 0.934924
vt 0.876356 0.000000
vt 0.733189 0.995662
vt 0.655098 1.000000
vt 0.672451 0.000000
vt 0.746204 0.000000
vt 0.422994 0.913232
vt 0.379610 0.000000
vt 0.373102 0.921909
vt 0.433839 0.000000
vt 0.245119 0.000000
vt 0.290672 0.000000
vt 0.286334 0.728850
vt 0.227766 0.728850
s 1
usemtl Wheatgrass_Mat
f 1/1/1 2/2/2 3/3/3
f 2/2/2 1/1/1 4/4/4
f 5/5/5 6/6/6 7/7/7
f 5/5/5 8/8/8 6/6/6
f 9/9/9 10/10/10 11/11/11
f 9/9/9 12/12/12 10/10/10
f 13/5/13 14/7/14 15/6/15
f 13/5/13 15/6/15 16/8/16
f 17/9/17 18/11/18 19/10/19
f 17/9/17 19/10/19 20/12/20
f 21/13/21 22/14/22 23/15/23
f 21/13/21 23/15/23 24/16/24
f 25/17/25 26/18/26 27/19/27
f 25/17/25 28/20/28 26/18/26
f 29/17/29 30/19/30 31/18/31
f 29/17/29 31/18/31 32/20/32
f 33/13/33 34/14/33 35/15/34
f 33/13/33 35/15/34 36/16/34
f 37/1/35 38/2/36 39/3/37
f 38/2/36 37/1/35 40/4/38
f 41/5/39 42/7/40 43/6/41
f 41/5/39 43/6/41 44/8/42
f 45/9/43 46/10/44 47/11/45
f 45/9/43 48/12/46 46/10/44
f 49/13/47 50/15/48 51/14/49
f 49/13/47 52/16/50 50/15/48
f 53/21/51 54/22/51 55/23/52
f 53/21/51 55/23/52 56/24/52
f 57/17/53 58/18/54 59/19/53
f 57/17/53 60/20/54 58/18/54
f 61/1/55 62/2/56 63/3/57
f 62/2/56 61/1/55 64/4/58
f 65/13/59 66/15/60 67/14/61
f 65/13/59 68/16/62 66/15/60
f 69/1/63 70/3/64 71/2/65
f 71/2/65 72/4/66 69/1/63
f 73/5/67 74/6/68 75/7/69
f 73/5/67 76/8/70 74/6/68
f 77/5/71 78/7/72 79/6/73
f 77/5/71 79/6/73 80/8/74
f 81/21/75 82/23/76 83/22/77
f 81/21/75 84/24/76 82/23/76
f 85/5/78 86/7/79 87/6/80
f 85/5/78 87/6/80 88/8/81
f 89/1/82 90/2/83 91/3/84
f 90/2/83 89/1/82 92/4/85
f 93/1/86 94/3/87 95/2/88
f 95/2/88 96/4/89 93/1/86
f 97/9/90 98/10/91 99/11/92
f 97/9/90 100/12/93 98/10/91
f 101/17/94 102/19/95 103/18/96
f 101/17/94 103/18/96 104/20/97
f 105/1/98 106/3/99 107/2/100
f 107/2/100 108/4/101 105/1/98
f 109/13/102 110/14/103 111/15/104
f 109/13/102 111/15/104 112/16/105
f 113/17/106 114/19/107 115/18/108
f 113/17/106 115/18/108 116/20/109
f 117/21/110 118/22/110 119/23/111
f 117/21/110 119/23/111 120/24/112
f 121/9/113 122/10/114 123/11/115
f 121/9/113 124/12/116 122/10/114
f 125/13/117 126/15/118 127/14/119
f 125/13/117 128/16/120 126/15/118
f 129/5/121 130/7/122 131/6/123
f 129/5/121 131/6/123 132/8/124
f 133/13/125 134/14/126 135/15/127
f 133/13/125 135/15/127 136/16/128
f 137/9/129 138/11/130 139/10/131
f 137/9/129 139/10/131 140/12/132
f 141/13/133 142/14/134 143/15/135
f 141/13/133 143/15/135 144/16/136
f 145/1/137 146/3/138 147/2/139
f 147/2/139 148/4/140 145/1/137
f 149/17/141 150/18/142 151/19/143
f 149/17/141 152/20/144 150/18/142
f 153/17/145 154/19/145 155/18/146
f 153/17/145 155/18/146 156/20/147
f 157/21/148 158/22/148 159/23/149
f 157/21/148 159/23/149 160/24/150
f 161/9/151 162/10/151 163/11/151
f 161/9/151 164/12/151 162/10/151
f 165/21/152 166/22/152 167/23/153
f 165/21/152 167/23/153 168/24/153
f 169/1/154 170/2/155 171/3/156
f 170/2/155 169/1/154 172/4/157
f 173/21/158 174/23/159 175/22/158
f 173/21/158 176/24/159 174/23/159
f 177/13/160 178/15/161 179/14/162
f 177/13/160 180/16/163 178/15/161
f 181/17/164 182/18/165 183/19/166
f 181/17/164 184/20/167 182/18/165
f 185/5/168 186/6/169 187/7/170
f 185/5/168 188/8/171 186/6/169
f 189/1/172 190/3/172 191/2/173
f 191/2/173 192/4/173 189/1/172
f 193/17/174 194/19/175 195/18/176
f 193/17/174 195/18/176 196/20/177
f 197/5/178 198/7/178 199/6/179
f 197/5/178 199/6/179 200/8/179
f 201/13/180 202/15/181 203/14/182
f 201/13/180 204/16/181 202/15/181
f 205/17/183 206/19/184 207/18/185
f 205/17/183 207/18/185 208/20/186
f 209/1/187 210/2/188 211/3/189
f 210/2/188 209/1/187 212/4/190
f 213/21/191 214/22/191 215/23/192
f 213/21/191 215/23/192 216/24/192
f 217/17/193 218/19/194 219/18/195
f 217/17/193 219/18/195 220/20/196
f 221/21/197 222/23/198 223/22/197
f 221/21/197 224/24/199 222/23/198
f 225/13/200 226/15/201 227/14/200
f 225/13/200 228/16/201 226/15/201
f 229/17/202 230/19/202 231/18/203
f 229/17/202 231/18/203 232/20/203
f 233/21/204 234/23/205 235/22/206
f 233/21/204 236/24/205 234/23/205
f 237/9/207 238/10/208 239/11/209
f 237/9/207 240/12/210 238/10/208
f 241/9/211 242/11/212 243/10/213
f 241/9/211 243/10/213 244/12/214
f 245/1/215 246/3/216 247/2/217
f 247/2/217 248/4/218 245/1/215
f 249/5/219 250/7/220 251/6/221
f 249/5/219 251/6/221 252/8/222
f 253/5/223 254/6/224 255/7/225
f 253/5/223 256/8/226 254/6/224
f 257/9/227 258/11/228 259/10/229
f 257/9/227 259/10/229 260/12/230
f 261/13/231 262/15/232 263/14/233
f 261/13/231 264/16/234 262/15/232
f 265/13/235 266/14/236 267/15/237
f 265/13/235 267/15/237 268/16/238
f 269/17/239 270/19/240 271/18/241
f 269/17/239 271/18/241 272/20/242
f 273/17/243 274/19/243 275/18/244
f 273/17/243 275/18/244 276/20/245
f 277/9/246 278/11/247 279/10/248
f 277/9/246 279/10/248 280/12/249
f 281/5/250 282/7/251 283/6/252
f 281/5/250 283/6/252 284/8/253
f 285/1/254 286/3/255 287/2/256
f 287/2/256 288/4/257 285/1/254
f 289/5/258 290/6/259 291/7/260
f 289/5/258 292/8/261 290/6/259
f 293/1/262 294/3/263 295/2/264
f 295/2/264 296/4/265 293/1/262
f 297/13/266 298/15/267 299/14/268
f 297/13/266 300/16/269 298/15/267
f 301/1/270 302/3/271 303/2/272
f 303/2/272 304/4/273 301/1/270
f 305/5/274 306/7/275 307/6/276
f 305/5/274 307/6/276 308/8/277
f 309/1/278 310/2/279 311/3/278
f 310/2/279 309/1/278 312/4/280
f 313/9/281 314/10/282 315/11/283
f 313/9/281 316/12/284 314/10/282
f 317/9/285 318/10/286 319/11/287
f 317/9/285 320/12/288 318/10/286
f 321/21/289 322/22/289 323/23/290
f 321/21/289 323/23/290 324/24/290
f 325/9/291 326/11/292 327/10/293
f 325/9/291 327/10/293 328/12/294
f 329/21/295 330/23/296 331/22/295
f 329/21/295 332/24/296 330/23/296
f 333/13/297 334/15/298 335/14/297
f 333/13/297 336/16/298 334/15/298
f 337/21/299 338/23/300 339/22/299
f 337/21/299 340/24/300 338/23/300
f 341/17/301 342/19/302 343/18/303
f 341/17/301 343/18/303 344/20/304
f 345/17/305 346/19/306 347/18/307
f 345/17/305 347/18/307 348/20/308
f 349/5/309 350/6/310 351/7/311
f 349/5/309 352/8/312 350/6/310
f 353/5/313 354/6/314 355/7/315
f 353/5/313 356/8/316 354/6/314
f 357/17/317 358/18/318 359/19/319
f 357/17/317 360/20/320 358/18/318
f 361/9/321 362/10/322 363/11/323
f 361/9/321 364/12/324 362/10/322
f 365/13/325 366/15/326 367/14/327
f 365/13/325 368/16/328 366/15/326
f 369/13/329 370/15/330 371/14/329
f 369/13/329 372/16/330 370/15/330
f 373/5/331 374/7/332 375/6/333
f 373/5/331 375/6/333 376/8/334
f 377/9/335 378/11/336 379/10/337
f 377/9/335 379/10/337 380/12/338
f 381/17/339 382/19/340 383/18/341
f 381/17/339 383/18/341 384/20/342
f 385/5/343 386/7/344 387/6/345
f 385/5/343 387/6/345 388/8/346
f 389/13/347 390/15/348 391/14/347
f 389/13/347 392/16/349 390/15/348
f 393/9/350 394/10/351 395/11/352
f 393/9/350 396/12/353 394/10/351
f 397/17/354 398/18/355 399/19/356
f 397/17/354 400/20/357 398/18/355
f 401/21/358 402/22/358 403/23/359
f 401/21/358 403/23/359 404/24/359
f 405/21/360 406/23/361 407/22/360
f 405/21/360 408/24/361 406/23/361
f 409/9/362 410/10/363 411/11/364
f 409/9/362 412/12/365 410/10/363
f 413/21/366 414/22/366 415/23/367
f 413/21/366 415/23/367 416/24/367
f 417/21/368 418/23/369 419/22/370
f 417/21/368 420/24/369 418/23/369
f 421/5/371 422/6/372 423/7/373
f 421/5/371 424/8/374 422/6/372
f 425/9/375 426/10/376 427/11/377
f 425/9/375 428/12/378 426/10/376
f 429/1/379 430/2/380 431/3/381
f 430/2/380 429/1/379 432/4/382
f 433/5/383 434/6/384 435/7/385
f 433/5/383 436/8/386 434/6/384
f 437/9/387 438/10/388 439/11/389
f 437/9/387 440/12/390 438/10/388
f 441/5/391 442/6/392 443/7/393
f 441/5/391 444/8/394 442/6/392
f 445/21/395 446/23/396 447/22/395
f 445/21/395 448/24/396 446/23/396
f 449/21/397 450/22/397 451/23/397
f 449/21/397 451/23/397 452/24/397
f 453/21/398 454/22/398 455/23/399
f 453/21/398 455/23/399 456/24/399
f 457/1/400 458/3/401 459/2/402
f 459/2/402 460/4/403 457/1/400
f 461/5/404 462/7/405 463/6/406
f 461/5/404 463/6/406 464/8/407
f 465/21/408 466/22/408 467/23/409
f 465/21/408 467/23/409 468/24/410
f 469/21/411 470/23/412 471/22/411
f 469/21/411 472/24/412 470/23/412
f 473/1/413 474/3/414 475/2/415
f 475/2/415 476/4/416 473/1/413
f 477/1/417 478/3/418 479/2/419
f 479/2/419 480/4/420 477/1/417
f 481/9/421 482/10/422 483/11/423
f 481/9/421 484/12/424 482/10/422
f 485/13/425 486/14/426 487/15/427
f 485/13/425 487/15/427 488/16/428
f 489/21/429 490/23/429 491/22/429
f 489/21/429 492/24/429 490/23/429
f 493/13/430 494/14/431 495/15/432
f 493/13/430 495/15/432 496/16/433
f 497/1/434 498/2/435 499/3/436
f 498/2/435 497/1/434 500/4/437
f 501/21/438 502/22/438 503/23/439
f 501/21/438 503/23/439 504/24/439
f 505/21/440 506/22/440 507/23/441
f 505/21/440 507/23/441 508/24/441
f 509/13/442 510/14/443 511/15/444
f 509/13/442 511/15/444 512/16/445
f 513/1/446 514/3/447 515/2/448
f 515/2/448 516/4/449 513/1/446
f 517/21/450 518/23/451 519/22/452
f 517/21/450 520/24/451 518/23/451
f 521/13/453 522/14/453 523/15/454
f 521/13/453 523/15/454 524/16/454
f 525/5/455 526/7/456 527/6/457
f 525/5/455 527/6/457 528/8/458
f 529/5/459 530/6/460 531/7/461
f 529/5/459 532/8/462 530/6/460
f 533/21/463 534/23/464 535/22/465
f 533/21/463 536/24/464 534/23/464
f 537/17/466 538/19/467 539/18/468
f 537/17/466 539/18/468 540/20/469
f 541/13/470 542/15/471 543/14/472
f 541/13/470 544/16/473 542/15/471
f 545/5/474 546/6/475 547/7/476
f 545/5/474 548/8/477 546/6/475
f 549/21/478 550/23/479 551/22/478
f 549/21/478 552/24/479 550/23/479
f 553/21/480 554/22/481 555/23/482
f 553/21/480 555/23/482 556/24/482
f 557/21/483 558/22/483 559/23/484
f 557/21/483 559/23/484 560/24/485
f 561/9/486 562/10/487 563/11/488
f 561/9/486 564/12/489 562/10/487
f 565/13/490 566/15/491 567/14/492
f 565/13/490 568/16/493 566/15/491
f 569/13/494 570/15/495 571/14/496
f 569/13/494 572/16/495 570/15/495
f 573/9/497 574/10/498 575/11/499
f 573/9/497 576/12/500 574/10/498
f 577/5/501 578/7/502 579/6/503
f 577/5/501 579/6/503 580/8/504
f 581/1/505 582/3/506 583/2/507
f 583/2/507 584/4/508 581/1/505
f 585/21/509 586/22/509 587/23/510
f 585/21/509 587/23/510 588/24/510
f 589/21/511 590/22/512 591/23/513
f 589/21/511 591/23/513 592/24/513
f 593/21/514 594/23/514 595/22/514
f 593/21/514 596/24/514 594/23/514
f 597/5/515 598/6/516 599/7/517
f 597/5/515 600/8/516 598/6/516
f 601/13/518 602/15/519 603/14/520
f 601/13/518 604/16/521 602/15/519
f 605/5/522 606/6/523 607/7/524
f 605/5/522 608/8/525 606/6/523
f 609/17/526 610/18/527 611/19/528
f 609/17/526 612/20/529 610/18/527
f 613/5/530 614/6/531 615/7/532
f 613/5/530 616/8/533 614/6/531
f 617/5/534 618/6/535 619/7/534
f 617/5/534 620/8/535 618/6/535
f 621/1/536 622/2/537 623/3/538
f 622/2/537 621/1/536 624/4/539
f 625/17/540 626/18/541 627/19/542
f 625/17/540 628/20/543 626/18/541
f 629/17/544 630/19/545 631/18/546
f 629/17/544 631/18/546 632/20/547
f 633/5/548 634/7/549 635/6/550
f 633/5/548 635/6/550 636/8/551
f 637/13/552 638/15/553 639/14/554
f 637/13/552 640/16/555 638/15/553
f 641/17/556 642/18/557 643/19/558
f 641/17/556 644/20/559 642/18/557
f 645/13/560 646/14/561 647/15/562
f 645/13/560 647/15/562 648/16/563
f 649/9/564 650/10/564 651/11/564
f 649/9/564 652/12/564 650/10/564
f 653/1/565 654/2/566 655/3/567
f 654/2/566 653/1/565 656/4/568
f 657/13/569 658/15/570 659/14/571
f 657/13/569 660/16/572 658/15/570
f 661/1/573 662/3/574 663/2/575
f 663/2/575 664/4/576 661/1/573
f 665/21/577 666/23/578 667/22/579
f 665/21/577 668/24/578 666/23/578
f 669/5/580 670/6/581 671/7/582
f 669/5/580 672/8/583 670/6/581
f 673/1/584 674/2/585 675/3/586
f 674/2/585 673/1/584 676/4/587
f 677/21/588 678/22/588 679/23/589
f 677/21/588 679/23/589 680/24/589
f 681/17/590 682/19/591 683/18/592
f 681/17/590 683/18/592 684/20/593
f 685/13/594 686/15/595 687/14/596
f 685/13/594 688/16/597 686/15/595
f 689/1/598 690/3/599 691/2/600
f 691/2/600 692/4/601 689/1/598
f 693/13/602 694/15/603 695/14/602
f 693/13/602 696/16/603 694/15/603
f 697/9/604 698/11/605 699/10/606
f 697/9/604 699/10/606 700/12/607
f 701/13/608 702/15/609 703/14/610
f 701/13/608 704/16/611 702/15/609
f 705/13/612 706/15/613 707/14/612
f 705/13/612 708/16/614 706/15/613
f 709/17/615 710/19/616 711/18/617
f 709/17/615 711/18/617 712/20/618
f 713/9/619 714/11/620 715/10/621
f 713/9/619 715/10/621 716/12/622
f 717/21/623 718/23/624 719/22/625
f 717/21/623 720/24/624 718/23/624
f 721/5/626 722/6/627 723/7/628
f 721/5/626 724/8/629 722/6/627
f 725/9/630 726/11/631 727/10/632
f 725/9/630 727/10/632 728/12/633
f 729/5/634 730/6/635 731/7/636
f 729/5/634 732/8/635 730/6/635
f 733/9/637 734/10/638 735/11/639
f 733/9/637 736/12/640 734/10/638
f 737/9/641 738/11/642 739/10/643
f 737/9/641 739/10/643 740/12/644
f 741/5/645 742/7/646 743/6/647
f 741/5/645 743/6/647 744/8/648
f 745/1/649 746/3/650 747/2/651
f 747/2/651 748/4/652 745/1/649
f 749/13/653 750/15/654 751/14/655
f 749/13/653 752/16/656 750/15/654
f 753/17/657 754/18/658 755/19/659
f 753/17/657 756/20/660 754/18/658
f 757/1/661 758/3/662 759/2/663
f 759/2/663 760/4/664 757/1/661
f 761/17/665 762/18/666 763/19/667
f 761/17/665 764/20/668 762/18/666
f 765/1/669 766/3/670 767/2/671
f 767/2/671 768/4/672 765/1/669
f 769/17/673 770/19/674 771/18/675
f 769/17/673 771/18/675 772/20/676
f 773/9/677 774/10/678 775/11/679
f 773/9/677 776/12/680 774/10/678
f 777/13/681 778/14/682 779/15/683
f 777/13/681 779/15/683 780/16/684
f 781/5/685 782/6/686 783/7/687
f 781/5/685 784/8/686 782/6/686
f 785/5/688 786/7/689 787/6/690
f 785/5/688 787/6/690 788/8/691
f 789/9/692 790/11/693 791/10/694
f 789/9/692 791/10/694 792/12/695
f 793/13/696 794/15/697 795/14/698
f 793/13/696 796/16/699 794/15/697
f 797/13/700 798/14/701 799/15/702
f 797/13/700 799/15/702 800/16/703
